<?xml version="1.0" encoding="UTF-8"?>
<svg id="Layer_1" data-name="Layer 1" xmlns="http://www.w3.org/2000/svg" viewBox="0 0 196.84 186.23">
  <defs>
    <style>
      .cls-1 {
        fill: #f3f3f3;
      }

      .cls-1, .cls-2 {
        stroke-width: 0px;
      }
    </style>
  </defs>
  <path class="cls-2" d="m98.46,0c6.68,0,13.36,0,20.04,0,3.57,0,4.77,1.19,4.78,4.8.03,6.61-.02,13.23.02,19.84.05,7.52,2.7,11.08,9.67,13.91,33.59,13.63,54.27,38.24,61.9,73.64,2.5,11.62,2.69,23.42.08,35.11-3.99,17.81-15.36,28.62-32.53,33.8-9.12,2.75-18.5,3.92-27.96,4.51-5.37.34-10.76.66-16.14.62-19.12-.13-38.25-.15-57.35-.76-11.1-.36-22.08-2.23-32.48-6.46-12.12-4.93-20.79-13.36-25.03-25.88C.56,144.53-.34,135.61.11,126.55c.87-17.36,5.74-33.49,15.06-48.19,11.68-18.43,27.66-31.72,48.07-39.54,4.64-1.78,8.38-4.3,9.7-9.35.39-1.49.48-3.1.49-4.65.03-6.68,0-13.36-.04-20.04-.02-3.39,1.28-4.76,4.64-4.77,6.82-.01,13.63,0,20.45,0Zm-17.86,7.37c0,.88,0,1.61,0,2.34,0,5.32.06,10.64-.04,15.95-.04,1.96-.21,3.97-.73,5.85-2.06,7.31-7.23,11.46-14.16,14.09C26.22,60.6,2.54,101.49,8.08,141.91c2.11,15.4,10.35,25.85,25.03,31.16,11.03,3.99,22.53,5.2,34.1,5.6,22.62.79,45.26.99,67.87-.35,9.67-.57,19.25-1.9,28.44-5.21,13.81-4.98,22.25-14.52,24.76-29.09,2.25-13.1,1.29-26.01-2.44-38.74-4.38-14.95-12.07-27.94-23.02-39.01-9.7-9.81-21.17-16.78-34.03-21.68-7.96-3.03-12.57-10.05-12.65-18.54-.05-5.45-.01-10.91-.01-16.36,0-.73,0-1.46,0-2.32h-35.54Z"/>
  <path class="cls-1" d="m80.6,7.37h35.54c0,.86,0,1.59,0,2.32,0,5.45-.04,10.91.01,16.36.07,8.49,4.68,15.51,12.65,18.54,12.86,4.89,24.33,11.87,34.03,21.68,10.95,11.07,18.64,24.06,23.02,39.01,3.73,12.73,4.7,25.64,2.44,38.74-2.51,14.57-10.95,24.11-24.76,29.09-9.19,3.31-18.77,4.64-28.44,5.21-22.61,1.34-45.25,1.14-67.87.35-11.57-.41-23.08-1.62-34.1-5.6-14.69-5.31-22.92-15.76-25.03-31.16C2.54,101.49,26.22,60.6,65.68,45.61c6.92-2.63,12.09-6.78,14.16-14.09.53-1.87.7-3.89.73-5.85.1-5.32.03-10.64.04-15.95,0-.73,0-1.46,0-2.34Zm34.97,71.87c-.5-4.6-.85-9.22-1.55-13.79-1.11-7.24-3.45-14.14-6.55-20.78-.7-1.5-1.87-2.6-3.47-2.32-1.13.19-2.65,1.02-3.02,1.94-.46,1.15-.26,2.86.27,4.05,5.48,12.13,7.73,24.78,6.4,38.04-1.62,16.18-7.87,30.34-18.68,42.47-6.24,7-13.65,12.48-22,16.75-1.1.56-2.35,1.72-2.59,2.81-.24,1.07.41,2.67,1.2,3.56,1.18,1.33,2.81.91,4.33.16,18.7-9.25,31.66-23.82,39.59-42.95,3.95-9.55,5.68-19.59,6.06-29.94Zm45.04,44.27c.13-22.84-8.74-45.92-24.42-62.9-3.41-3.69-7.26-6.98-11.01-10.35-1.63-1.46-3.84-1.23-5.14.22-1.38,1.54-1.26,3.55.34,5.1.59.57,1.24,1.06,1.87,1.59,28.66,23.84,38.82,63.49,25.09,98.11-.73,1.83-1.62,3.6-2.3,5.45-.99,2.69.8,5.17,3.52,5,1.82-.12,2.7-1.31,3.4-2.83,5.76-12.51,8.56-25.65,8.65-39.4ZM91.63,42.5c0-.88.01-1.36,0-1.84-.06-2.05-1.28-3.4-3.19-3.57-1.96-.17-3.38.88-3.83,2.88-.15.66-.22,1.34-.28,2.02-1.68,19.3-9.61,35.55-23.95,48.57-10.32,9.37-22.37,15.38-36.1,17.94-3.12.58-4.61,2.25-4.14,4.49.48,2.29,2.39,3.29,5.53,2.6,2.98-.66,5.92-1.51,8.85-2.34,10.42-2.98,19.75-8.04,28.02-15,17.44-14.68,26.89-33.54,29.09-55.75Z"/>
  <path class="cls-2" d="m115.58,79.24c-.39,10.36-2.11,20.4-6.06,29.94-7.93,19.13-20.89,33.7-39.59,42.95-1.52.75-3.16,1.16-4.33-.16-.79-.89-1.44-2.49-1.2-3.56.25-1.09,1.49-2.25,2.59-2.81,8.35-4.27,15.76-9.75,22-16.75,10.81-12.13,17.06-26.29,18.68-42.47,1.33-13.26-.92-25.91-6.4-38.04-.54-1.19-.73-2.9-.27-4.05.37-.93,1.89-1.75,3.02-1.94,1.6-.28,2.78.83,3.47,2.32,3.1,6.64,5.44,13.53,6.55,20.78.7,4.57,1.04,9.19,1.55,13.79Z"/>
  <path class="cls-2" d="m160.62,123.52c-.09,13.75-2.89,26.9-8.65,39.4-.7,1.52-1.58,2.71-3.4,2.83-2.73.18-4.52-2.3-3.52-5,.68-1.85,1.57-3.62,2.3-5.45,13.73-34.62,3.56-74.27-25.09-98.11-.63-.52-1.29-1.02-1.87-1.59-1.6-1.55-1.72-3.56-.34-5.1,1.3-1.45,3.51-1.68,5.14-.22,3.75,3.36,7.6,6.65,11.01,10.35,15.68,16.98,24.56,40.06,24.42,62.9Z"/>
  <path class="cls-2" d="m91.63,42.5c-2.2,22.2-11.64,41.06-29.09,55.75-8.27,6.96-17.6,12.02-28.02,15-2.94.84-5.88,1.69-8.85,2.34-3.14.69-5.05-.3-5.53-2.6-.47-2.24,1.01-3.91,4.14-4.49,13.74-2.56,25.79-8.57,36.1-17.94,14.34-13.02,22.28-29.27,23.95-48.57.06-.68.13-1.36.28-2.02.45-2,1.87-3.05,3.83-2.88,1.91.16,3.13,1.52,3.19,3.57.01.48,0,.95,0,1.84Z"/>
</svg>